<svg xmlns="http://www.w3.org/2000/svg" viewBox="0 0 160 160" width="160" height="160" role="img" aria-labelledby="title desc">
  <title id="title">청년 모아봄 심볼</title>
  <desc id="desc">여러 뉴스 카드 뒤로 봄 햇살이 비추고 카드들이 바구니에 모인 정방형 심볼</desc>
  <defs>
    <style>
      .blue { fill: #3278bd; }
      .blue-dark { fill: #2268ad; }
      .blue-soft { fill: #8fb7df; }
      .sun { fill: #fb7435; }
      .paper { fill: #fffdf9; }
      .paper-soft { fill: #f7fbff; }
      .paper-warm { fill: #fff3e7; }
      .line { fill: #9ca6af; }
      .line-soft { fill: #d9dde2; }
      .stroke-blue { stroke: #8fb7df; }
      .stroke-warm { stroke: #f0d8c4; }
      .stroke-navy { stroke: #102747; }
    </style>
  </defs>
  <circle class="sun" cx="96" cy="42" r="30"/>
  <rect class="sun" x="92" y="6" width="8" height="17" rx="4"/>
  <rect class="sun" x="58" y="23" width="8" height="19" rx="4" transform="rotate(-40 62 32.5)"/>
  <rect class="sun" x="125" y="31" width="8" height="19" rx="4" transform="rotate(42 129 40.5)"/>
  <rect class="sun" x="124" y="61" width="19" height="8" rx="4"/>
  <g opacity=".96">
    <rect x="33" y="50" width="39" height="58" rx="8" class="paper-soft stroke-blue" stroke-width="4" transform="rotate(-8 52.5 79)"/>
    <rect class="blue-soft" x="44" y="63" width="10" height="13" rx="2" transform="rotate(-8 49 69.5)"/>
    <rect class="line-soft" x="57" y="64" width="14" height="5" rx="2.5" transform="rotate(-8 64 66.5)"/>
    <rect class="line-soft" x="45" y="85" width="23" height="5" rx="2.5" transform="rotate(-8 56.5 87.5)"/>
  </g>
  <g opacity=".96">
    <rect x="88" y="50" width="39" height="58" rx="8" class="paper-warm stroke-warm" stroke-width="4" transform="rotate(8 107.5 79)"/>
    <rect class="sun" x="99" y="63" width="10" height="13" rx="2" transform="rotate(8 104 69.5)"/>
    <rect class="line-soft" x="112" y="64" width="14" height="5" rx="2.5" transform="rotate(8 119 66.5)"/>
    <rect class="line-soft" x="100" y="85" width="23" height="5" rx="2.5" transform="rotate(8 111.5 87.5)"/>
  </g>
  <rect class="paper stroke-navy" x="56" y="40" width="50" height="76" rx="11" stroke-width="5"/>
  <rect class="sun" x="68" y="55" width="15" height="17" rx="3"/>
  <rect class="line" x="90" y="57" width="14" height="6" rx="3"/>
  <rect class="line-soft" x="90" y="70" width="11" height="5" rx="2.5"/>
  <rect class="line-soft" x="68" y="88" width="34" height="5" rx="2.5"/>
  <rect class="line-soft" x="68" y="101" width="27" height="5" rx="2.5"/>
  <path class="blue" d="M24 96h113l-10.8 36c-1.7 5.6-6.1 8.4-11.8 8.4H46.6c-5.7 0-10.1-2.8-11.8-8.4L24 96Z"/>
  <path class="blue-dark" d="M20 94h121l-10 19H30L20 94Z"/>
  <rect class="paper" x="57" y="124" width="46" height="6" rx="3" opacity=".95"/>
</svg>
