<svg xmlns="http://www.w3.org/2000/svg" viewBox="0 0 120 120" role="img" aria-labelledby="title desc">
  <title id="title">청년모아봄 뉴스 인박스 봄빛 마크</title>
  <desc id="desc">청년 뉴스 카드들이 한곳에 모이고 그 위로 따뜻한 봄빛이 떠오르는 아이콘형 로고</desc>
  <defs>
    <linearGradient id="springSun" x1="60" y1="6" x2="60" y2="68" gradientUnits="userSpaceOnUse">
      <stop offset="0" stop-color="#ffe58f"/>
      <stop offset="0.62" stop-color="#f8c78f"/>
      <stop offset="1" stop-color="#f39f8d"/>
    </linearGradient>
    <linearGradient id="trayGreen" x1="16" y1="74" x2="104" y2="112" gradientUnits="userSpaceOnUse">
      <stop offset="0" stop-color="#86c987"/>
      <stop offset="1" stop-color="#3f805c"/>
    </linearGradient>
    <style>
      .ink { fill: #244b3c; }
      .paper { fill: #fff8f2; }
      .paper-warm { fill: #fff1d8; }
      .paper-pink { fill: #f8d8e5; }
      .paper-rose { fill: #f7b9cf; }
      .line { fill: #6d7d74; opacity: 0.52; }
      .line-soft { fill: #6d7d74; opacity: 0.28; }
      .spark { fill: #f4c95d; }
    </style>
  </defs>
  <circle cx="60" cy="30" r="25" fill="url(#springSun)" opacity="0.42"/>
  <path class="spark" d="M59 5h3v11h-3z"/>
  <path class="spark" d="M93.5 25.5l2.2 2.2-7.3 7.3-2.2-2.2z"/>
  <path class="spark" d="M24.3 27.7l2.2-2.2 7.3 7.3-2.2 2.2z"/>
  <g transform="rotate(-12 41 46)">
    <rect class="paper-pink" x="26" y="25" width="31" height="45" rx="6"/>
    <rect class="line" x="33" y="34" width="16" height="3" rx="1.5"/>
    <rect class="line-soft" x="33" y="43" width="12" height="3" rx="1.5"/>
    <rect class="line-soft" x="33" y="52" width="18" height="3" rx="1.5"/>
  </g>
  <g transform="rotate(11 80 47)">
    <rect class="paper-warm" x="64" y="26" width="31" height="45" rx="6"/>
    <rect class="line" x="71" y="35" width="16" height="3" rx="1.5"/>
    <rect class="line-soft" x="71" y="44" width="12" height="3" rx="1.5"/>
    <rect class="line-soft" x="71" y="53" width="18" height="3" rx="1.5"/>
  </g>
  <path class="paper" d="M43 20c0-3.3 2.7-6 6-6h19l9 9v45c0 3.3-2.7 6-6 6H49c-3.3 0-6-2.7-6-6V20Z"/>
  <path class="paper-rose" d="M68 14v9h9Z"/>
  <rect class="line" x="51" y="31" width="18" height="3" rx="1.5"/>
  <rect class="line-soft" x="51" y="41" width="14" height="3" rx="1.5"/>
  <rect class="line-soft" x="51" y="51" width="19" height="3" rx="1.5"/>
  <path class="ink" d="M14 71c10.8-6 24.1-8.6 39.8-7.8 2.8.1 5 2.5 5 5.3v41.8H40c-14.4 0-26-11.6-26-26V71Z"/>
  <path class="ink" d="M106 71c-10.8-6-24.1-8.6-39.8-7.8-2.8.1-5 2.5-5 5.3v41.8H80c14.4 0 26-11.6 26-26V71Z"/>
  <path fill="url(#trayGreen)" d="M10 80c10.8-6.9 23.5-9.8 38-8.7 4.8.4 8.5 4.4 8.5 9.2V114H34c-13.3 0-24-10.7-24-24V80Z"/>
  <path fill="url(#trayGreen)" d="M110 80c-10.8-6.9-23.5-9.8-38-8.7-4.8.4-8.5 4.4-8.5 9.2V114H86c13.3 0 24-10.7 24-24V80Z"/>
  <path class="paper" d="M58 114c-1.1-13.8-5.7-24.3-13.9-31.5-4.5-4-10.8-7.1-18.7-9.4l3.6-11.4c9.8 2.8 17.8 6.8 23.9 12.2 3.3 2.9 5.9 6.1 7.9 9.5 2-3.4 4.6-6.6 7.9-9.5 6.1-5.4 14-9.4 23.9-12.2l3.6 11.4c-7.9 2.3-14.2 5.4-18.7 9.4-8.2 7.2-12.8 17.7-13.9 31.5H58Z"/>
</svg>
