<svg xmlns="http://www.w3.org/2000/svg" viewBox="0 0 160 160" width="160" height="160" role="img" aria-labelledby="title desc">
  <title id="title">청년 모아봄 심볼</title>
  <desc id="desc">해가 비추는 기사들이 옅은 바닥 위에 모인 로고</desc>
  <defs>
    <style>
      .ground { fill: #d9e1e8; opacity: .78; }
      .ground-line { fill: #aebbc7; opacity: .75; }
      .sun { fill: #ff7436; }
      .sun-ray { fill: none; stroke: #ff7436; stroke-width: 8; stroke-linecap: round; }
      .paper { fill: #fffdf9; }
      .paper-stroke { stroke: #102747; }
      .paper-side-blue { fill: #f7fbff; stroke: #8fb7df; stroke-width: 4; }
      .paper-side-warm { fill: #fff3e7; stroke: #f0d8c4; stroke-width: 4; }
      .detail-blue { fill: #8fb7df; }
      .line { fill: #9ca6af; }
      .line-soft { fill: #d9dde2; }
    </style>
  </defs>
  <g>
    <g aria-hidden="true">
      <line class="sun-ray" x1="82" y1="6" x2="82" y2="19"/>
      <line class="sun-ray" x1="82" y1="6" x2="82" y2="19" transform="rotate(-45 82 45)"/>
      <line class="sun-ray" x1="82" y1="6" x2="82" y2="19" transform="rotate(45 82 45)"/>
      <line class="sun-ray" x1="82" y1="6" x2="82" y2="19" transform="rotate(-90 82 45)"/>
      <line class="sun-ray" x1="82" y1="6" x2="82" y2="19" transform="rotate(90 82 45)"/>
    </g>
    <circle class="sun" cx="82" cy="45" r="29"/>

    <g opacity=".92" transform="rotate(-8 47 82)">
      <rect class="paper-side-blue" x="32" y="54" width="32" height="58" rx="8"/>
      <rect class="detail-blue" x="42" y="67" width="10" height="13" rx="2"/>
      <rect class="line-soft" x="55" y="69" width="8" height="5" rx="2.5"/>
      <rect class="line-soft" x="42" y="91" width="20" height="5" rx="2.5"/>
    </g>
    <g opacity=".92" transform="rotate(8 116 82)">
      <rect class="paper-side-warm" x="96" y="54" width="32" height="58" rx="8"/>
      <rect class="sun" x="106" y="67" width="10" height="13" rx="2"/>
      <rect class="line-soft" x="119" y="69" width="8" height="5" rx="2.5"/>
      <rect class="line-soft" x="106" y="91" width="20" height="5" rx="2.5"/>
    </g>
    <rect class="paper paper-stroke" x="55" y="39" width="52" height="77" rx="12" stroke-width="5"/>
    <rect class="sun" x="67" y="55" width="15" height="17" rx="3"/>
    <rect class="line" x="90" y="58" width="14" height="6" rx="3"/>
    <rect class="line-soft" x="90" y="72" width="11" height="5" rx="2.5"/>
    <rect class="line-soft" x="68" y="89" width="34" height="5" rx="2.5"/>
    <rect class="line-soft" x="68" y="102" width="27" height="5" rx="2.5"/>

    <ellipse class="ground" cx="81" cy="123" rx="47" ry="9"/>
    <rect class="ground-line" x="56" y="119" width="50" height="5" rx="2.5"/>
  </g>
</svg>
