<svg xmlns="http://www.w3.org/2000/svg" viewBox="0 0 160 160" width="160" height="160" role="img" aria-labelledby="title desc">
  <title id="title">청년 모아봄 심볼</title>
  <desc id="desc">봄 햇살 아래 청년 정책과 이슈 카드가 한곳에 모이는 정방형 심볼</desc>
  <defs>
    <style>
      .navy { fill: #102747; }
      .blue { fill: #3278bd; }
      .blue-dark { fill: #2268ad; }
      .blue-soft { fill: #8fb7df; }
      .sun { fill: #fb7435; }
      .paper { fill: #fffdf9; }
      .line { fill: #9ca6af; }
      .line-soft { fill: #d9dde2; }
    </style>
  </defs>
  <circle class="sun" cx="103" cy="45" r="22"/>
  <rect class="sun" x="100" y="12" width="7" height="16" rx="3.5"/>
  <path class="sun" d="m70 29 6-10 14 8-6 10z"/>
  <path class="sun" d="m119 27 14-8 6 10-14 8z"/>
  <path class="sun" d="m133 53 16-1 1 7-16 1z"/>
  <g transform="rotate(-7 52 78)">
    <rect x="32" y="44" width="42" height="66" rx="8" fill="#f8fbfe" stroke="#8fb7df" stroke-width="4"/>
    <rect class="blue-soft" x="43" y="56" width="13" height="15" rx="3"/>
    <rect class="line-soft" x="43" y="79" width="22" height="5" rx="2.5"/>
    <rect class="line-soft" x="43" y="91" width="27" height="5" rx="2.5"/>
  </g>
  <g transform="rotate(7 102 78)">
    <rect x="86" y="44" width="42" height="66" rx="8" fill="#f8fbfe" stroke="#8fb7df" stroke-width="4"/>
    <rect class="blue-soft" x="97" y="56" width="13" height="15" rx="3"/>
    <rect class="line-soft" x="97" y="79" width="22" height="5" rx="2.5"/>
    <rect class="line-soft" x="97" y="91" width="27" height="5" rx="2.5"/>
  </g>
  <rect class="paper" x="57" y="36" width="50" height="82" rx="10" stroke="#102747" stroke-width="5"/>
  <rect class="sun" x="69" y="51" width="15" height="17" rx="3"/>
  <rect class="line" x="90" y="52" width="26" height="6" rx="3"/>
  <rect class="line-soft" x="90" y="65" width="20" height="5" rx="2.5"/>
  <rect class="line-soft" x="69" y="82" width="38" height="5" rx="2.5"/>
  <rect class="line-soft" x="69" y="95" width="28" height="5" rx="2.5"/>
  <path class="sun" d="M87 87h17v28l-8.5-5.8L87 115z"/>
  <path class="blue" d="M22 96h116l-11 36c-1.8 5.7-6.3 8.5-12 8.5H45c-5.7 0-10.2-2.8-12-8.5z"/>
  <path class="blue-dark" d="M20 94h120l-10 19H30z"/>
  <rect class="paper" x="57" y="124" width="46" height="6" rx="3" opacity=".94"/>
</svg>
