<svg xmlns="http://www.w3.org/2000/svg" viewBox="0 0 120 120" role="img" aria-labelledby="title desc">
  <title id="title">청년모아봄 봄빛 뉴스 마크</title>
  <desc id="desc">겹겹의 뉴스 카드가 꽃처럼 피어나고 봄빛이 떠오르는 청년모아봄 아이콘형 로고</desc>
  <defs>
    <linearGradient id="sunrise" x1="60" y1="8" x2="60" y2="80" gradientUnits="userSpaceOnUse">
      <stop offset="0" stop-color="#ffe188"/>
      <stop offset="0.55" stop-color="#f7b9cf"/>
      <stop offset="1" stop-color="#f39f8d"/>
    </linearGradient>
    <style>
      .outline { fill: #244b3c; }
      .paper { fill: #fff8f2; }
      .page-left { fill: #7bbf84; }
      .page-right { fill: #4f8c62; }
      .card-left { fill: #f8d8e5; }
      .card-center { fill: #fff4de; }
      .card-right { fill: #f7b9cf; }
      .headline { fill: #6d7d74; opacity: 0.58; }
      .headline-soft { fill: #6d7d74; opacity: 0.32; }
      .spark { fill: #f4c95d; }
    </style>
  </defs>
  <circle cx="60" cy="16" r="17" fill="url(#sunrise)" opacity="0.45"/>
  <circle class="spark" cx="24" cy="24" r="3"/>
  <circle class="spark" cx="95" cy="20" r="2.5"/>
  <g transform="rotate(-26 38 16)">
    <rect class="card-left" x="28" y="3" width="19" height="28" rx="4"/>
    <rect class="headline" x="32" y="10" width="11" height="2.5" rx="1.25"/>
    <rect class="headline-soft" x="32" y="16" width="8" height="2.5" rx="1.25"/>
  </g>
  <g>
    <path class="card-center" d="M50 2c0-2.2 1.8-4 4-4h10l6 6v22c0 2.2-1.8 4-4 4H54c-2.2 0-4-1.8-4-4V2Z"/>
    <path class="paper" d="M64 -2v6h6Z" opacity="0.92"/>
    <rect class="headline" x="55" y="8" width="10" height="2.5" rx="1.25"/>
    <rect class="headline-soft" x="55" y="14" width="8" height="2.5" rx="1.25"/>
    <rect class="headline-soft" x="55" y="20" width="6" height="2.5" rx="1.25"/>
  </g>
  <g transform="rotate(24 82 16)">
    <rect class="card-right" x="73" y="3" width="19" height="28" rx="4"/>
    <rect class="headline" x="77" y="10" width="11" height="2.5" rx="1.25"/>
    <rect class="headline-soft" x="77" y="16" width="8" height="2.5" rx="1.25"/>
  </g>
  <path class="outline" d="M18 76V34c0-12.2 9.8-22 22-22h40c12.2 0 22 9.8 22 22v42H74V45c0-7.7-6.3-14-14-14s-14 6.3-14 14v31H18Z"/>
  <path class="paper" d="M42 76V45c0-10 8-18 18-18s18 8 18 18v31H42Z"/>
  <path d="M50 76V48.5C50 42.7 54.7 38 60.5 38S71 42.7 71 48.5V76H50Z" fill="url(#sunrise)"/>
  <path class="page-left" d="M8 101c0-13.3 10.7-24 24-24h24v18c0 10.5-8.5 19-19 19H18c-5.5 0-10-4.5-10-10V101Z"/>
  <path class="page-right" d="M64 77h24c13.3 0 24 10.7 24 24v3c0 5.5-4.5 10-10 10H83c-10.5 0-19-8.5-19-19V77Z"/>
  <path class="paper" d="M58 114c0-15.6 6-27.1 18-34.5 3.4-2.1 7.7-3.8 12.9-5.2l4 12c-4.6 1.2-8.2 2.6-10.8 4.1-7.4 4.6-11.1 12.5-11.1 23.6H58Z"/>
  <path class="paper" d="M58 114H45c0-10.7-3.5-18.3-10.4-22.8-2.5-1.6-6.2-3.1-11-4.5l3.9-12c5.4 1.6 9.8 3.5 13.4 5.7C52.3 87.7 58 98.9 58 114Z"/>
</svg>
