<svg xmlns="http://www.w3.org/2000/svg" viewBox="0 0 160 160" width="160" height="160" role="img" aria-labelledby="title desc">
  <title id="title">청년 모아봄 심볼</title>
  <desc id="desc">봄 햇살 아래 청년 정책 문서가 바구니에 담긴 정방형 심볼</desc>
  <defs>
    <style>
      .blue { fill: #3278bd; }
      .blue-dark { fill: #2268ad; }
      .blue-soft { fill: #8fb7df; }
      .sun { fill: #fb7435; }
      .paper { fill: #fffdf9; }
      .line { fill: #9ca6af; }
      .line-soft { fill: #d9dde2; }
      .stroke-navy { stroke: #102747; }
    </style>
  </defs>
  <circle class="sun" cx="80" cy="37" r="25"/>
  <rect class="sun" x="76" y="5" width="8" height="18" rx="4"/>
  <rect class="sun" x="48" y="23" width="8" height="20" rx="4" transform="rotate(-45 52 33)"/>
  <rect class="sun" x="104" y="23" width="8" height="20" rx="4" transform="rotate(45 108 33)"/>
  <rect class="sun" x="119" y="39" width="18" height="8" rx="4"/>
  <rect class="sun" x="23" y="39" width="18" height="8" rx="4"/>
  <rect class="paper stroke-navy" x="53" y="45" width="54" height="72" rx="11" stroke-width="5"/>
  <rect class="sun" x="67" y="59" width="16" height="17" rx="3"/>
  <rect class="line" x="89" y="60" width="16" height="6" rx="3"/>
  <rect class="line-soft" x="89" y="73" width="13" height="5" rx="2.5"/>
  <rect class="line-soft" x="67" y="91" width="34" height="5" rx="2.5"/>
  <rect class="line-soft" x="67" y="103" width="27" height="5" rx="2.5"/>
  <path class="blue" d="M25 96h110l-10.5 35.5c-1.6 5.6-6 8.5-11.7 8.5H47.2c-5.7 0-10.1-2.9-11.7-8.5L25 96Z"/>
  <path class="blue-dark" d="M21 94h118l-9.5 19H30.5L21 94Z"/>
  <rect class="paper" x="57" y="124" width="46" height="6" rx="3" opacity=".95"/>
</svg>
