<svg xmlns="http://www.w3.org/2000/svg" viewBox="0 0 720 160" role="img" aria-labelledby="title desc">
  <title id="title">청년 투게더 로고</title>
  <desc id="desc">청년 투게더 아이콘과 워드마크 조합 로고</desc>
  <defs>
    <style>
      .wordmark {
        fill: #1d2f49;
        font-family: "Noto Sans KR", "Pretendard", "Apple SD Gothic Neo", sans-serif;
        font-size: 92px;
        font-weight: 800;
        letter-spacing: -0.06em;
      }
    </style>
  </defs>
  <g transform="translate(0 18)">
    <path fill="#1d2f49" d="M18 76V34c0-12.2 9.8-22 22-22h40c12.2 0 22 9.8 22 22v42H74V45c0-7.7-6.3-14-14-14s-14 6.3-14 14v31H18Z"/>
    <path fill="#f8f4ed" d="M42 76V45c0-10 8-18 18-18s18 8 18 18v31H42Z"/>
    <path fill="#f67f63" d="M50 76V48.5C50 42.7 54.7 38 60.5 38S71 42.7 71 48.5V76H50Z"/>
    <path fill="#4fa6a2" d="M8 101c0-13.3 10.7-24 24-24h24v18c0 10.5-8.5 19-19 19H18c-5.5 0-10-4.5-10-10V101Z"/>
    <path fill="#4fa6a2" d="M64 77h24c13.3 0 24 10.7 24 24v3c0 5.5-4.5 10-10 10H83c-10.5 0-19-8.5-19-19V77Z"/>
    <path fill="#f8f4ed" d="M58 114c0-15.6 6-27.1 18-34.5 3.4-2.1 7.7-3.8 12.9-5.2l4 12c-4.6 1.2-8.2 2.6-10.8 4.1-7.4 4.6-11.1 12.5-11.1 23.6H58Z"/>
    <path fill="#f8f4ed" d="M58 114H45c0-10.7-3.5-18.3-10.4-22.8-2.5-1.6-6.2-3.1-11-4.5l3.9-12c5.4 1.6 9.8 3.5 13.4 5.7C52.3 87.7 58 98.9 58 114Z"/>
  </g>
  <text class="wordmark" x="150" y="112">청년 투게더</text>
</svg>
