<svg xmlns="http://www.w3.org/2000/svg" viewBox="0 0 610 160" width="610" height="160" role="img" aria-labelledby="title desc">
  <title id="title">청년 모아봄 로고</title>
  <desc id="desc">해가 비추는 기사 한 장이 파란 받침 위에 놓이고, 옆에 청년 모아봄 이름이 놓인 로고</desc>
  <defs>
    <style>
      .wordmark {
        fill: #102747;
        font-family: "Noto Sans KR", "Pretendard", "Apple SD Gothic Neo", sans-serif;
        font-size: 72px;
        font-weight: 800;
        letter-spacing: 0;
      }
      .basket { fill: #3278bd; }
      .basket-lip { fill: #2268ad; }
      .sun { fill: #ff7436; }
      .paper { fill: #fffdf9; }
      .paper-stroke { stroke: #102747; }
      .line { fill: #9ca6af; }
      .line-soft { fill: #d9dde2; }
    </style>
  </defs>
  <g>
    <circle class="sun" cx="82" cy="45" r="29"/>
    <rect class="sun" x="78" y="7" width="8" height="16" rx="4"/>
    <rect class="sun" x="42" y="26" width="8" height="19" rx="4" transform="rotate(-42 46 35.5)"/>
    <rect class="sun" x="115" y="26" width="8" height="19" rx="4" transform="rotate(42 119 35.5)"/>
    <rect class="sun" x="23" y="42" width="17" height="8" rx="4"/>
    <rect class="sun" x="124" y="42" width="17" height="8" rx="4"/>

    <rect class="paper paper-stroke" x="55" y="39" width="52" height="77" rx="12" stroke-width="5"/>
    <rect class="sun" x="67" y="55" width="15" height="17" rx="3"/>
    <rect class="line" x="90" y="58" width="14" height="6" rx="3"/>
    <rect class="line-soft" x="90" y="72" width="11" height="5" rx="2.5"/>
    <rect class="line-soft" x="68" y="89" width="34" height="5" rx="2.5"/>
    <rect class="line-soft" x="68" y="102" width="27" height="5" rx="2.5"/>

    <path class="basket-lip" d="M19 91h122l-10 19H29L19 91Z"/>
    <path class="basket" d="M24 96h112l-10.8 36.5c-1.6 5.5-6.2 8.5-11.9 8.5H46.7c-5.7 0-10.3-3-11.9-8.5L24 96Z"/>
    <rect class="paper" x="57" y="124" width="46" height="6" rx="3" opacity=".95"/>
  </g>
  <text class="wordmark" x="178" y="96">청년 모아봄</text>
</svg>
