<svg xmlns="http://www.w3.org/2000/svg" viewBox="0 0 320 250" fill="none">
  <ellipse cx="168" cy="216" rx="90" ry="14" fill="#F2E7DB" opacity=".42"/>
  <circle cx="104" cy="86" r="30" fill="#DCE7EA"/>
  <circle cx="226" cy="70" r="36" fill="#F3E0D2"/>
  <rect x="110" y="63" width="104" height="80" rx="24" fill="#F4EBE0" opacity=".94"/>
  <rect x="88" y="80" width="146" height="100" rx="28" fill="#FBF6EE"/>
  <rect x="88" y="80" width="146" height="100" rx="28" stroke="#ECE0D5" stroke-width="4"/>
  <rect x="106" y="99" width="110" height="66" rx="20" fill="#FFFFFF"/>
  <rect x="122" y="114" width="52" height="10" rx="5" fill="#223445"/>
  <rect x="122" y="132" width="68" height="8" rx="4" fill="#D89A78"/>
  <rect x="122" y="147" width="78" height="8" rx="4" fill="#90A5B0"/>
  <path d="M70 135c0-15 12-27 27-27h39c15 0 27 12 27 27v8c0 15-12 27-27 27h-12l-20 15 3-15h-10c-15 0-27-12-27-27v-8Z" fill="#8EA2AF"/>
  <circle cx="102" cy="139" r="4.5" fill="#FFF8F1"/>
  <circle cx="115" cy="139" r="4.5" fill="#FFF8F1"/>
  <circle cx="128" cy="139" r="4.5" fill="#FFF8F1"/>
  <circle cx="224" cy="113" r="22" fill="#E8B393"/>
  <path d="M209 116l24-6-8 22-4-10-12-6Z" fill="#FFF8F1"/>
  <path d="M209 116l24-6-8 22-4-10-12-6Z" stroke="#223445" stroke-linejoin="round" stroke-width="4"/>
  <path d="M221 120l17 14" stroke="#223445" stroke-linecap="round" stroke-width="4"/>
  <path d="M216 145c0-14 11-25 25-25h15c14 0 25 11 25 25v7c0 14-11 25-25 25h-10l-14 13 4-13h-5c-14 0-25-11-25-25v-7Z" fill="#F7E8DB"/>
  <path d="M216 145c0-14 11-25 25-25h15c14 0 25 11 25 25v7c0 14-11 25-25 25h-10l-14 13 4-13h-5c-14 0-25-11-25-25v-7Z" stroke="#F0E1D4" stroke-width="3"/>
  <path d="M248 59l4 9 10 2-7 7 2 10-9-5-9 5 2-10-7-7 10-2 4-9Z" fill="#D89A78"/>
  <circle cx="92" cy="63" r="6" fill="#FFF8F1" opacity=".82"/>
  <circle cx="241" cy="98" r="5" fill="#FFF8F1" opacity=".74"/>
</svg>
