<svg xmlns="http://www.w3.org/2000/svg" viewBox="0 0 320 250" fill="none" role="img" aria-labelledby="title desc">
  <title id="title">청년 모아봄 홈 일러스트</title>
  <desc id="desc">청년들이 함께 웃으며 오늘의 기사와 정책 정보를 살펴보는 일러스트</desc>
  <defs>
    <style>
      .navy { fill: #102747; }
      .blue { fill: #3278BD; }
      .blue-soft { fill: #8FB7DF; }
      .orange { fill: #FB7435; }
      .green { fill: #8DCAAE; }
      .skin { fill: #F7E8DB; }
      .skin-warm { fill: #FFE1C8; }
      .paper { fill: #FFFDF9; }
      .paper-blue { fill: #F7FBFF; stroke: #8FB7DF; stroke-width: 4; }
      .paper-warm { fill: #FFF3E7; stroke: #F0D8C4; stroke-width: 4; }
      .line { fill: #D9DDE2; }
      .smile { fill: none; stroke: #102747; stroke-width: 4; stroke-linecap: round; }
      .sun-ray { fill: none; stroke: #FB7435; stroke-width: 8; stroke-linecap: round; }
    </style>
  </defs>

  <ellipse cx="170" cy="218" rx="112" ry="14" fill="#0B1828" opacity=".24"/>

  <g aria-hidden="true" opacity=".96">
    <line class="sun-ray" x1="242" y1="23" x2="242" y2="36"/>
    <line class="sun-ray" x1="242" y1="23" x2="242" y2="36" transform="rotate(-45 242 69)"/>
    <line class="sun-ray" x1="242" y1="23" x2="242" y2="36" transform="rotate(45 242 69)"/>
    <line class="sun-ray" x1="242" y1="23" x2="242" y2="36" transform="rotate(-90 242 69)"/>
    <line class="sun-ray" x1="242" y1="23" x2="242" y2="36" transform="rotate(90 242 69)"/>
  </g>
  <circle class="orange" cx="242" cy="69" r="34"/>

  <g transform="rotate(-8 82 96)">
    <rect class="paper-blue" x="39" y="51" width="70" height="86" rx="17"/>
    <rect class="blue" x="57" y="72" width="16" height="18" rx="4"/>
    <rect class="navy" x="80" y="76" width="31" height="8" rx="4"/>
    <rect class="line" x="57" y="103" width="48" height="7" rx="3.5"/>
    <rect class="line" x="57" y="122" width="34" height="7" rx="3.5"/>
  </g>

  <g transform="rotate(8 247 103)">
    <rect class="paper-warm" x="214" y="62" width="62" height="80" rx="16"/>
    <rect class="orange" x="231" y="82" width="16" height="18" rx="4"/>
    <rect class="navy" x="253" y="86" width="27" height="8" rx="4"/>
    <rect class="line" x="231" y="113" width="42" height="7" rx="3.5"/>
    <rect class="line" x="231" y="131" width="31" height="7" rx="3.5"/>
  </g>

  <path class="blue-soft" d="M73 179c0-25 19-43 43-43s43 18 43 43v21H73v-21Z"/>
  <circle class="skin" cx="116" cy="117" r="28"/>
  <path class="navy" d="M88 111c9-19 31-29 50-19 9 5 15 13 17 23-23-5-42-5-67-4Z"/>
  <circle class="navy" cx="106" cy="118" r="3.2"/>
  <circle class="navy" cx="128" cy="118" r="3.2"/>
  <path class="smile" d="M106 133c7 7 16 7 23 0"/>

  <path class="green" d="M181 179c0-24 18-41 41-41s41 17 41 41v21h-82v-21Z"/>
  <circle class="skin-warm" cx="222" cy="120" r="27"/>
  <path class="navy" d="M197 117c4-21 25-34 45-24 9 4 15 12 17 22-21-5-41-4-62 2Z"/>
  <circle class="navy" cx="213" cy="121" r="3"/>
  <circle class="navy" cx="234" cy="121" r="3"/>
  <path class="smile" d="M211 135c7 6 15 6 22 0"/>

  <path class="blue" d="M128 187c0-29 22-50 52-50s52 21 52 50v23H128v-23Z"/>
  <circle class="skin" cx="180" cy="113" r="33"/>
  <path class="navy" d="M151 104c6-23 31-36 55-25 12 5 20 15 23 27-27-7-50-7-78-2Z"/>
  <circle class="navy" cx="168" cy="116" r="3.5"/>
  <circle class="navy" cx="193" cy="116" r="3.5"/>
  <path class="smile" d="M166 132c8 8 20 8 28 0"/>

  <rect class="paper" x="145" y="147" width="72" height="44" rx="10"/>
  <rect class="orange" x="158" y="158" width="13" height="15" rx="3"/>
  <rect class="navy" x="178" y="161" width="28" height="6" rx="3"/>
  <rect class="line" x="158" y="178" width="47" height="6" rx="3"/>
  <path class="smile" d="M102 171c12 9 23 9 35 0"/>
  <path class="smile" d="M224 171c11 8 21 8 32 0"/>
</svg>
