<svg xmlns="http://www.w3.org/2000/svg" viewBox="0 0 240 190" fill="none">
  <ellipse cx="126" cy="168" rx="70" ry="12" fill="#EADFD4" opacity=".5"/>
  <circle cx="174" cy="52" r="34" fill="#DCE6E8"/>
  <path d="M56 76c0-9 7-16 16-16h34l10 10h52c9 0 16 7 16 16v54c0 9-7 16-16 16H72c-9 0-16-7-16-16V76Z" fill="#F7E7D9"/>
  <rect x="79" y="85" width="57" height="68" rx="10" fill="#FAF4EC"/>
  <rect x="91" y="101" width="31" height="6" rx="3" fill="#233446"/>
  <rect x="91" y="114" width="39" height="5" rx="2.5" fill="#D89C7C"/>
  <rect x="91" y="125" width="35" height="5" rx="2.5" fill="#8EA4AE"/>
  <rect x="142" y="95" width="26" height="46" rx="9" fill="#FFFFFF"/>
  <path d="M150 130l7-9 5 6 8-12" stroke="#233446" stroke-linecap="round" stroke-linejoin="round" stroke-width="4"/>
  <circle cx="63" cy="56" r="14" fill="#F1DDD0"/>
  <path d="M63 47v18M54 56h18" stroke="#233446" stroke-linecap="round" stroke-width="4"/>
</svg>
