<svg xmlns="http://www.w3.org/2000/svg" viewBox="0 0 240 190" fill="none">
  <ellipse cx="128" cy="168" rx="68" ry="12" fill="#EADFD4" opacity=".5"/>
  <circle cx="171" cy="53" r="34" fill="#F1DDD0"/>
  <path d="M65 73c0-10 8-18 18-18h74c10 0 18 8 18 18v52c0 10-8 18-18 18H83c-10 0-18-8-18-18V73Z" fill="#FAF4EC"/>
  <path d="M72 78l47 33 49-33" stroke="#233446" stroke-linecap="round" stroke-linejoin="round" stroke-width="5"/>
  <path d="M73 126l34-25M166 126l-34-25" stroke="#D89C7C" stroke-linecap="round" stroke-width="4"/>
  <path d="M157 42h31c9 0 16 7 16 16v8c0 9-7 16-16 16h-8l-10 10 3-10h-16c-9 0-16-7-16-16v-8c0-9 7-16 16-16Z" fill="#DCE6E8"/>
  <rect x="160" y="55" width="23" height="4" rx="2" fill="#233446"/>
  <rect x="160" y="63" width="16" height="4" rx="2" fill="#D89C7C"/>
</svg>
