<svg xmlns="http://www.w3.org/2000/svg" viewBox="0 0 320 250" fill="none">
  <ellipse cx="176" cy="214" rx="92" ry="16" fill="#F0E6DB" opacity=".52"/>
  <circle cx="230" cy="66" r="46" fill="#F1DDD0"/>
  <circle cx="112" cy="86" r="38" fill="#D9E4E8"/>
  <rect x="92" y="70" width="142" height="112" rx="28" fill="#FAF4EC"/>
  <rect x="108" y="88" width="110" height="78" rx="22" fill="#FFFFFF"/>
  <rect x="124" y="104" width="58" height="10" rx="5" fill="#233446"/>
  <rect x="124" y="122" width="74" height="8" rx="4" fill="#D89C7C"/>
  <rect x="124" y="138" width="84" height="8" rx="4" fill="#8EA4AE"/>
  <path d="M79 135c0-15 12-27 27-27h34c15 0 27 12 27 27v10c0 15-12 27-27 27h-13l-23 18 4-18h-2c-15 0-27-12-27-27v-10Z" fill="#8EA4AE"/>
  <circle cx="111" cy="140" r="4" fill="#FAF4EC"/>
  <circle cx="123" cy="140" r="4" fill="#FAF4EC"/>
  <circle cx="135" cy="140" r="4" fill="#FAF4EC"/>
  <path d="M213 96l20 24-30 4 10-28Z" fill="#D89C7C"/>
  <path d="M216 92l22 26" stroke="#233446" stroke-linecap="round" stroke-width="4"/>
  <path d="M238 118l-32 5" stroke="#233446" stroke-linecap="round" stroke-width="4"/>
  <path d="M230 145c0-16 13-29 29-29 16 0 29 13 29 29v4c0 16-13 29-29 29h-11l-18 15 5-15h-5c-16 0-29-13-29-29v-4Z" fill="#F7E7D9"/>
  <path d="M255 56l5 10 11 2-8 8 2 11-10-6-10 6 2-11-8-8 11-2 5-10Z" fill="#D89C7C"/>
</svg>
