<svg xmlns="http://www.w3.org/2000/svg" viewBox="0 0 360 300" fill="none">
  <path d="M231 22c40 0 87 18 99 58 14 45-22 95-74 111-47 14-108-2-131-42-26-46 11-127 106-127Z" fill="#F3DDD0"/>
  <path d="M90 96c25-16 63-18 95 1 35 21 57 65 44 101-14 39-65 61-112 51-44-10-79-47-73-86 5-29 23-52 46-67Z" fill="#DCE6E8"/>
  <ellipse cx="181" cy="272" rx="112" ry="20" fill="#E9E2D9"/>
  <g transform="translate(54 62)">
    <ellipse cx="54" cy="193" rx="42" ry="11" fill="#D7CCC0" opacity=".45"/>
    <circle cx="56" cy="54" r="24" fill="#F1C8B2"/>
    <path d="M37 56c0-20 14-34 32-34 15 0 28 11 31 28-8-4-18-6-30-6-13 0-24 4-33 12Z" fill="#203243"/>
    <path d="M26 104c0-24 19-44 43-44s43 20 43 44v42H26v-42Z" fill="#D79776"/>
    <path d="M38 102c7 9 18 15 31 15 13 0 24-6 31-15v20c-8 8-19 13-31 13-12 0-23-5-31-13v-20Z" fill="#E7B398"/>
    <rect x="39" y="143" width="22" height="50" rx="11" fill="#203243"/>
    <rect x="68" y="143" width="22" height="50" rx="11" fill="#203243"/>
    <rect x="22" y="105" width="18" height="54" rx="9" transform="rotate(12 22 105)" fill="#D79776"/>
    <rect x="99" y="106" width="18" height="54" rx="9" transform="rotate(-16 99 106)" fill="#D79776"/>
  </g>
  <g transform="translate(130 44)">
    <ellipse cx="55" cy="212" rx="48" ry="12" fill="#D7CCC0" opacity=".45"/>
    <circle cx="58" cy="51" r="25" fill="#EBC2AA"/>
    <path d="M34 51c2-21 17-34 36-34 18 0 31 14 33 32-9-5-18-7-30-7-15 0-27 4-39 9Z" fill="#24394B"/>
    <path d="M24 102c0-26 20-48 46-48 20 0 37 12 43 29l16 42-24 8-10-27v90H37v-94l-9 31-25-7 14-44c7-19 24-31 44-31Z" fill="#7F97A0"/>
    <rect x="46" y="194" width="20" height="55" rx="10" fill="#182734"/>
    <rect x="72" y="194" width="20" height="55" rx="10" fill="#182734"/>
    <rect x="109" y="118" width="34" height="44" rx="8" transform="rotate(-15 109 118)" fill="#F7F1E8"/>
    <rect x="116" y="126" width="20" height="4" rx="2" transform="rotate(-15 116 126)" fill="#D6C4B5"/>
    <rect x="114" y="136" width="18" height="4" rx="2" transform="rotate(-15 114 136)" fill="#D6C4B5"/>
  </g>
  <g transform="translate(232 78)">
    <ellipse cx="34" cy="175" rx="33" ry="9" fill="#D7CCC0" opacity=".45"/>
    <circle cx="37" cy="40" r="20" fill="#F0C8B2"/>
    <path d="M19 42c0-17 11-30 27-32 15-2 29 8 33 24-8-3-15-5-23-5-14 0-26 5-37 13Z" fill="#203243"/>
    <path d="M11 85c0-20 16-36 36-36s36 16 36 36v33H11V85Z" fill="#F3E4D8"/>
    <path d="M18 89c7 7 17 11 29 11 12 0 22-4 30-11v16c-7 7-18 11-30 11-12 0-22-4-29-11V89Z" fill="#F0C8B2"/>
    <rect x="24" y="117" width="18" height="51" rx="9" fill="#24394B"/>
    <rect x="49" y="117" width="18" height="51" rx="9" fill="#24394B"/>
    <rect x="71" y="82" width="14" height="46" rx="7" transform="rotate(-12 71 82)" fill="#F3E4D8"/>
  </g>
</svg>
