<svg xmlns="http://www.w3.org/2000/svg" viewBox="0 0 320 250" fill="none">
  <ellipse cx="170" cy="215" rx="98" ry="16" fill="#F2E7DB" opacity=".5"/>
  <circle cx="103" cy="82" r="36" fill="#DCE7EA"/>
  <circle cx="231" cy="66" r="44" fill="#F3E0D2"/>
  <rect x="90" y="72" width="146" height="106" rx="30" fill="#FBF6EE"/>
  <rect x="90" y="72" width="146" height="106" rx="30" stroke="#ECE0D5" stroke-width="4"/>
  <rect x="108" y="92" width="110" height="70" rx="22" fill="#FFFFFF"/>
  <rect x="123" y="108" width="54" height="10" rx="5" fill="#223445"/>
  <rect x="123" y="126" width="70" height="8" rx="4" fill="#D89A78"/>
  <rect x="123" y="142" width="82" height="8" rx="4" fill="#90A5B0"/>
  <path d="M74 132c0-16 13-29 29-29h37c16 0 29 13 29 29v9c0 16-13 29-29 29h-12l-22 17 3-17h-6c-16 0-29-13-29-29v-9Z" fill="#8EA2AF"/>
  <circle cx="107" cy="136" r="4.5" fill="#FFF8F1"/>
  <circle cx="120" cy="136" r="4.5" fill="#FFF8F1"/>
  <circle cx="133" cy="136" r="4.5" fill="#FFF8F1"/>
  <path d="M215 131c0-15 12-27 27-27h16c15 0 27 12 27 27v8c0 15-12 27-27 27h-11l-16 15 4-15h-3c-15 0-27-12-27-27v-8Z" fill="#F7E8DB"/>
  <path d="M215 131c0-15 12-27 27-27h16c15 0 27 12 27 27v8c0 15-12 27-27 27h-11l-16 15 4-15h-3c-15 0-27-12-27-27v-8Z" stroke="#F0E1D4" stroke-width="3"/>
  <circle cx="222" cy="103" r="23" fill="#E8B393"/>
  <path d="M206 106l25-6-8 23-4-11-13-6Z" fill="#FFF8F1"/>
  <path d="M206 106l25-6-8 23-4-11-13-6Z" stroke="#223445" stroke-linejoin="round" stroke-width="4"/>
  <path d="M219 111l18 15" stroke="#223445" stroke-linecap="round" stroke-width="4"/>
  <path d="M250 57l5 10 11 2-8 8 2 11-10-6-10 6 2-11-8-8 11-2 5-10Z" fill="#D89A78"/>
  <circle cx="91" cy="59" r="7" fill="#FFF8F1" opacity=".72"/>
  <circle cx="247" cy="98" r="6" fill="#FFF8F1" opacity=".72"/>
</svg>
