<svg xmlns="http://www.w3.org/2000/svg" viewBox="0 0 260 220" fill="none">
  <path d="M120 18c47-6 102 17 121 55 19 37-1 87-44 111-47 27-113 28-149-6-35-34-35-97 7-131 18-15 41-25 65-29Z" fill="#DDE7E8"/>
  <ellipse cx="130" cy="198" rx="82" ry="14" fill="#E7E0D8"/>
  <circle cx="92" cy="84" r="18" fill="#F0C8B2"/>
  <circle cx="128" cy="62" r="17" fill="#EBC2AA"/>
  <circle cx="169" cy="86" r="18" fill="#F1C8B2"/>
  <path d="M77 84c1-15 12-25 26-25 11 0 20 7 24 18-5-2-10-3-16-3-12 0-21 3-34 10Z" fill="#203243"/>
  <path d="M114 63c0-14 10-23 23-23 11 0 20 7 23 18-4-2-9-3-14-3-10 0-18 2-32 8Z" fill="#24394B"/>
  <path d="M154 86c1-15 11-25 26-25 11 0 20 7 24 18-6-2-10-3-17-3-11 0-20 3-33 10Z" fill="#203243"/>
  <path d="M63 133c0-19 14-34 32-34 18 0 32 15 32 34v23H63v-23Z" fill="#D79776"/>
  <path d="M100 111c0-17 13-30 29-30 16 0 29 13 29 30v46H100v-46Z" fill="#7F97A0"/>
  <path d="M136 135c0-19 14-34 33-34 17 0 31 15 31 34v21h-64v-21Z" fill="#F3E4D8"/>
  <path d="M57 40h35c8 0 14 6 14 14v8c0 8-6 14-14 14H82l-10 12v-12h-15c-8 0-14-6-14-14v-8c0-8 6-14 14-14Z" fill="#F7F1E8"/>
  <path d="M165 33h38c8 0 14 6 14 14v9c0 8-6 14-14 14h-11l-11 11v-11h-16c-8 0-14-6-14-14v-9c0-8 6-14 14-14Z" fill="#F3DDD0"/>
  <circle cx="70" cy="58" r="3" fill="#203243"/>
  <circle cx="81" cy="58" r="3" fill="#D79B79"/>
  <circle cx="92" cy="58" r="3" fill="#7F97A0"/>
  <path d="M172 52h24M172 60h17" stroke="#203243" stroke-linecap="round" stroke-width="3"/>
</svg>
