<svg xmlns="http://www.w3.org/2000/svg" viewBox="0 0 260 220" fill="none">
  <path d="M120 24c46-20 106-11 126 28 20 37-8 89-54 114-47 25-115 23-146-16-30-37-13-96 38-126 11-7 23-12 36-16Z" fill="#F3DED0"/>
  <ellipse cx="130" cy="198" rx="79" ry="14" fill="#E7E0D8"/>
  <rect x="121" y="46" width="82" height="102" rx="14" fill="#F7F1E8"/>
  <rect x="138" y="69" width="47" height="6" rx="3" fill="#203243"/>
  <rect x="138" y="83" width="39" height="6" rx="3" fill="#D79B79"/>
  <rect x="138" y="97" width="43" height="6" rx="3" fill="#C8D5DA"/>
  <rect x="138" y="111" width="36" height="6" rx="3" fill="#C8D5DA"/>
  <g transform="translate(44 73)">
    <circle cx="32" cy="33" r="17" fill="#F0C8B2"/>
    <path d="M19 34c0-14 10-24 24-24 12 0 22 8 25 20-5-2-11-3-18-3-11 0-20 3-31 7Z" fill="#203243"/>
    <path d="M12 72c0-18 15-33 33-33 17 0 31 13 33 30v38H47V79l-15 16-16-15c-3-3-4-5-4-8Z" fill="#7F97A0"/>
  </g>
  <g transform="translate(180 95)">
    <circle cx="25" cy="28" r="16" fill="#EBC2AA"/>
    <path d="M14 29c0-13 9-23 22-24 12-1 22 7 25 19-6-2-11-3-18-3-11 0-19 2-29 8Z" fill="#24394B"/>
    <path d="M5 63c0-17 13-31 30-31 15 0 28 11 30 26l4 28H31V63l-9 9-17-9Z" fill="#D79776"/>
  </g>
</svg>
