<svg xmlns="http://www.w3.org/2000/svg" viewBox="0 0 260 220" fill="none">
  <path d="M155 16c44 0 86 27 88 67 2 41-39 77-87 88-53 12-115-8-125-53-8-40 29-86 83-98 14-3 28-4 41-4Z" fill="#DDE7E8"/>
  <ellipse cx="131" cy="198" rx="74" ry="14" fill="#E7E0D8"/>
  <circle cx="118" cy="63" r="22" fill="#F0C8B2"/>
  <path d="M101 62c1-18 14-31 31-31 14 0 25 9 30 24-7-3-14-5-24-5-13 0-24 4-37 12Z" fill="#203243"/>
  <path d="M83 111c0-24 19-43 43-43 18 0 34 11 40 27l14 37-21 8-10-24v61H93v-64l-8 24-22-6 13-39c6-18 23-31 43-31Z" fill="#D79776"/>
  <rect x="100" y="176" width="20" height="34" rx="10" fill="#24394B"/>
  <rect x="126" y="176" width="20" height="34" rx="10" fill="#24394B"/>
  <rect x="153" y="89" width="55" height="75" rx="11" transform="rotate(6 153 89)" fill="#F7F1E8"/>
  <rect x="165" y="104" width="31" height="5" rx="2.5" transform="rotate(6 165 104)" fill="#D79B79"/>
  <rect x="163" y="116" width="29" height="5" rx="2.5" transform="rotate(6 163 116)" fill="#C8D5DA"/>
  <rect x="161" y="128" width="33" height="5" rx="2.5" transform="rotate(6 161 128)" fill="#C8D5DA"/>
  <circle cx="191" cy="69" r="16" fill="#F3DDD0"/>
  <path d="M183 68h16M183 74h10" stroke="#203243" stroke-linecap="round" stroke-width="3"/>
</svg>
