<svg xmlns="http://www.w3.org/2000/svg" viewBox="0 0 240 190" fill="none">
  <ellipse cx="128" cy="168" rx="68" ry="12" fill="#EADFD4" opacity=".5"/>
  <circle cx="176" cy="52" r="34" fill="#F1DDD0"/>
  <rect x="78" y="42" width="88" height="114" rx="18" fill="#FAF4EC"/>
  <rect x="94" y="62" width="44" height="8" rx="4" fill="#233446"/>
  <rect x="94" y="80" width="48" height="6" rx="3" fill="#D89C7C"/>
  <rect x="94" y="94" width="38" height="6" rx="3" fill="#8EA4AE"/>
  <rect x="94" y="108" width="50" height="6" rx="3" fill="#8EA4AE"/>
  <circle cx="175" cy="112" r="22" fill="#DCE6E8"/>
  <path d="M164 112l7 7 14-17" stroke="#233446" stroke-linecap="round" stroke-linejoin="round" stroke-width="6"/>
  <path d="M55 79h30c9 0 16 7 16 16v7c0 9-7 16-16 16h-12l-12 11 3-11h-9c-9 0-16-7-16-16v-7c0-9 7-16 16-16Z" fill="#F7E7D9"/>
  <rect x="53" y="92" width="26" height="4" rx="2" fill="#233446"/>
  <rect x="53" y="100" width="18" height="4" rx="2" fill="#D89C7C"/>
</svg>
