<svg xmlns="http://www.w3.org/2000/svg" viewBox="0 0 240 190" fill="none">
  <ellipse cx="130" cy="168" rx="66" ry="12" fill="#EADFD4" opacity=".5"/>
  <circle cx="172" cy="54" r="34" fill="#DCE6E8"/>
  <rect x="70" y="48" width="88" height="108" rx="18" fill="#FAF4EC"/>
  <rect x="84" y="68" width="44" height="8" rx="4" fill="#233446"/>
  <rect x="84" y="84" width="56" height="6" rx="3" fill="#D89C7C"/>
  <rect x="84" y="96" width="48" height="6" rx="3" fill="#8EA4AE"/>
  <rect x="84" y="108" width="52" height="6" rx="3" fill="#8EA4AE"/>
  <circle cx="151" cy="115" r="20" fill="#F5E5D8"/>
  <circle cx="151" cy="115" r="13" stroke="#233446" stroke-width="5"/>
  <path d="M163 127l16 16" stroke="#233446" stroke-linecap="round" stroke-width="6"/>
  <path d="M160 44h32c8 0 14 6 14 14v8c0 8-6 14-14 14h-7l-10 9v-9h-15c-8 0-14-6-14-14v-8c0-8 6-14 14-14Z" fill="#F1DDD0"/>
  <rect x="166" y="57" width="21" height="4" rx="2" fill="#233446"/>
  <rect x="166" y="65" width="15" height="4" rx="2" fill="#D89C7C"/>
</svg>
