<svg xmlns="http://www.w3.org/2000/svg" viewBox="0 0 240 190" fill="none">
  <ellipse cx="122" cy="168" rx="72" ry="12" fill="#EADFD4" opacity=".5"/>
  <circle cx="88" cy="72" r="34" fill="#DCE6E8"/>
  <circle cx="168" cy="66" r="32" fill="#F1DDD0"/>
  <path d="M48 70c0-16 13-29 29-29h24c16 0 29 13 29 29v7c0 16-13 29-29 29H88l-17 15 5-15h-1c-16 0-29-13-29-29v-7Z" fill="#FAF4EC"/>
  <path d="M108 97c0-15 12-28 28-28h24c16 0 28 13 28 28v7c0 16-12 28-28 28h-10l-14 14 4-14h-4c-16 0-28-12-28-28v-7Z" fill="#F7E7D9"/>
  <circle cx="79" cy="74" r="4" fill="#233446"/>
  <circle cx="91" cy="74" r="4" fill="#D89C7C"/>
  <circle cx="103" cy="74" r="4" fill="#8EA4AE"/>
  <rect x="132" y="95" width="28" height="4" rx="2" fill="#233446"/>
  <rect x="132" y="103" width="21" height="4" rx="2" fill="#D89C7C"/>
  <path d="M103 110c8 8 19 13 31 13 9 0 18-2 26-7" stroke="#8EA4AE" stroke-linecap="round" stroke-width="5"/>
  <circle cx="102" cy="109" r="5" fill="#8EA4AE"/>
  <circle cx="160" cy="116" r="5" fill="#8EA4AE"/>
</svg>
