<svg xmlns="http://www.w3.org/2000/svg" viewBox="0 0 260 220" fill="none">
  <path d="M130 18c46-6 102 16 120 55 18 39-4 92-52 116-46 23-109 18-143-16-35-35-31-96 11-129 18-15 41-24 64-26Z" fill="#F3DED0"/>
  <ellipse cx="129" cy="198" rx="83" ry="14" fill="#E7E0D8"/>
  <rect x="58" y="126" width="145" height="15" rx="7.5" fill="#24394B"/>
  <rect x="73" y="140" width="14" height="34" rx="7" fill="#24394B"/>
  <rect x="174" y="140" width="14" height="34" rx="7" fill="#24394B"/>
  <rect x="121" y="81" width="67" height="43" rx="8" fill="#F7F1E8"/>
  <rect x="127" y="89" width="55" height="29" rx="5" fill="#DCE6E8"/>
  <path d="M153 119h4c4 0 7 3 7 7v2h-18v-2c0-4 3-7 7-7Z" fill="#24394B"/>
  <circle cx="93" cy="70" r="20" fill="#F0C8B2"/>
  <path d="M77 71c1-16 12-28 28-28 13 0 24 8 28 21-6-2-12-4-20-4-12 0-22 4-36 11Z" fill="#203243"/>
  <path d="M59 115c0-23 18-41 41-41 18 0 33 11 39 26l11 31-20 7-7-20-18 23-17-16-5 13-21-6 11-33c7-16 23-27 42-27Z" fill="#7F97A0"/>
  <rect x="141" y="65" width="31" height="42" rx="7" transform="rotate(10 141 65)" fill="#F7F1E8"/>
  <rect x="147" y="78" width="18" height="4" rx="2" transform="rotate(10 147 78)" fill="#D79B79"/>
  <rect x="148" y="87" width="15" height="4" rx="2" transform="rotate(10 148 87)" fill="#C8D5DA"/>
  <rect x="54" y="74" width="29" height="39" rx="7" transform="rotate(-11 54 74)" fill="#F7F1E8"/>
  <rect x="61" y="86" width="15" height="4" rx="2" transform="rotate(-11 61 86)" fill="#D79B79"/>
  <rect x="59" y="95" width="17" height="4" rx="2" transform="rotate(-11 59 95)" fill="#C8D5DA"/>
</svg>
